<?xml version="1.0" standalone="no"?><!DOCTYPE svg PUBLIC "-//W3C//DTD SVG 1.1//EN" "http://www.w3.org/Graphics/SVG/1.1/DTD/svg11.dtd"><svg t="1742044451429" class="icon" viewBox="0 0 1024 1024" version="1.1" xmlns="http://www.w3.org/2000/svg" p-id="14463" xmlns:xlink="http://www.w3.org/1999/xlink" width="200" height="200"><path d="M611.286 443.039c4.591-38.937 7.88-78.75 13.859-119.892-14.136 97.596-37.969 201.377-84.401 285.08-51.102 91.784-133.75 140.088-235.352 170.621-35.667 10.517-106.514 34.191-146.363 10.932-5.973 19.087-6.846 51.119 16.732 64.133 41.103 22.646 120.716-11.004 156.348-24.406 97.572-36.929 174.226-109.641 224.999-197.878 34.719-60.441 46.294-123.042 54.178-188.59z" fill="#B7C53B" p-id="14464"></path><path d="M612.742 267.737c-41.157-10.203-66.461-51.127-56.51-91.268 9.97-40.217 51.42-64.429 92.578-54.226 41.239 10.224 66.499 50.973 56.529 91.189-9.95 40.142-51.357 64.528-92.597 54.305z" fill="#00666F" p-id="14465"></path><path d="M700.296 452.238c-23.021-5.707-37.22-28.602-31.682-50.945 5.539-22.343 28.786-35.954 51.81-30.247 22.854 5.666 37.053 28.56 31.514 50.903-5.539 22.343-28.786 35.955-51.642 30.289zM657.485 624.751c-11.422-2.832-18.465-14.188-15.717-25.272s14.279-17.837 25.701-15.006c11.338 2.811 18.383 14.169 15.636 25.253-2.748 11.085-14.283 17.836-25.62 15.025zM496.41 334.003c53.975 13.38 88.17 63.582 76.153 112.053-12.017 48.474-65.699 76.888-119.674 63.507-53.975-13.38-88.002-63.538-75.985-112.012 12.016-48.47 65.532-76.928 119.506-63.548z" fill="#006B31" p-id="14466"></path></svg>